<svg width="123" height="123" viewBox="0 0 123 123" fill="none" xmlns="http://www.w3.org/2000/svg">
<rect width="122.802" height="122.802" rx="5" fill="black"/>
<path d="M23.2286 75.3849V53.3028C21.1147 54.875 19.1282 55.8612 17.269 56.2614V49.4867C19.5102 48.8578 21.8788 47.4857 24.3747 45.3704H29.4938V75.3849H23.2286Z" fill="white"/>
<path d="M44.7806 55.0608C47.5057 55.0608 49.7342 56.0327 51.466 57.9765C53.2233 59.8917 54.102 62.35 54.102 65.3515C54.102 68.3815 53.1087 70.8684 51.1222 72.8122C49.1357 74.756 46.6016 75.7279 43.52 75.7279C40.4383 75.7279 37.9042 74.3844 35.9177 71.6974C33.9312 69.0104 32.9379 65.5945 32.9379 61.4496C32.9379 58.7054 33.3072 56.2614 34.0458 54.1175C34.7844 51.9736 35.7776 50.2585 37.0256 48.9722C38.2735 47.6572 39.6488 46.6711 41.1514 46.0136C42.6541 45.3561 44.2203 45.0274 45.8503 45.0274C49.0848 45.0274 51.8481 46.1422 54.1402 48.3719L51.1604 53.7316C49.6069 52.2738 47.9132 51.5448 46.0795 51.5448C44.2458 51.5448 42.7305 52.1022 41.5335 53.2171C40.3364 54.3319 39.6106 55.8183 39.3559 57.6764C40.6293 55.9327 42.4376 55.0608 44.7806 55.0608ZM40.9986 68.0099C41.7372 68.8103 42.6541 69.2105 43.7492 69.2105C44.8443 69.2105 45.7357 68.8103 46.4233 68.0099C47.111 67.2095 47.4675 66.1804 47.493 64.9227C47.5185 63.6935 47.1747 62.6931 46.4615 61.9213C45.7484 61.1209 44.8443 60.7207 43.7492 60.7207C42.6286 60.7207 41.7117 61.1209 40.9986 61.9213C40.2855 62.6931 39.929 63.6935 39.929 64.9227C39.929 66.1804 40.2855 67.2095 40.9986 68.0099Z" fill="white"/>
<path d="M65.5937 75.3849L56.1578 45.3704H63.1106L68.8027 66.1233L74.5712 45.3704H81.4859L72.0499 75.3849H65.5937Z" fill="white"/>
<path d="M95.0742 75.7279C91.1776 75.7279 87.9304 74.3844 85.3326 71.6974C82.7604 68.9818 81.4742 65.2086 81.4742 60.3777C81.4742 55.5753 82.7858 51.8164 85.4091 49.1008C88.0323 46.3852 91.254 45.0274 95.0742 45.0274C98.5379 45.0274 101.378 45.985 103.593 47.9002C105.835 49.8154 107.121 52.3595 107.452 55.5325L100.69 57.0761C100.41 55.4181 99.7476 54.0889 98.7034 53.0884C97.6592 52.0594 96.4368 51.5448 95.036 51.5448C93.1259 51.5448 91.5214 52.3166 90.2225 53.8602C88.9491 55.4038 88.3124 57.5763 88.3124 60.3777C88.3124 63.179 88.9491 65.3515 90.2225 66.8951C91.496 68.4387 93.1004 69.2105 95.036 69.2105C96.4368 69.2105 97.621 68.7674 98.5888 67.8813C99.5821 66.9951 100.206 65.8231 100.461 64.3653L107.375 66.1233C106.739 69.1533 105.338 71.5116 103.173 73.1981C101.008 74.8846 98.3087 75.7279 95.0742 75.7279Z" fill="white"/>
</svg>
